# 3ds Max Wavefront OBJ Exporter v0.97b - (c)2007 guruware
# File Created: 23.11.2017 17:08:25

mtllib Flamingo.mtl

#
# object Box001
#

v  36.0299 2.5176 7.6014
v  56.0299 10.2732 15.3833
v  60.3694 29.2959 26.9354
v  36.2952 25.8688 14.8411
v  97.9406 12.5334 15.3833
v  97.1638 29.2959 28.5676
v  115.7531 19.3651 9.7961
v  117.4316 29.2959 26.5884
v  95.4573 5.9071 0.6388
v  117.4796 13.8528 0.7413
v  159.1916 12.1247 2.5533
v  143.5104 25.0521 12.9778
v  159.1916 12.1247 0.7413
v  64.9387 50.3725 29.2175
v  45.4617 49.9369 18.8354
v  94.4255 50.3483 27.0152
v  112.0112 43.4649 23.9835
v  127.5277 33.3453 17.0641
v  148.6557 29.0535 0.7413
v  130.7630 40.0935 0.7413
v  117.5521 50.9506 0.7413
v  107.3638 58.1794 0.7413
v  107.3638 54.1972 14.0729
v  62.9951 61.0595 14.2792
v  49.8369 58.0865 12.1629
v  93.6745 58.3158 14.0729
v  23.7686 11.7149 9.2668
v  21.5269 2.2932 7.6014
v  31.4289 38.1499 0.7413
v  24.7288 17.6976 0.7413
v  10.1381 18.5669 8.4676
v  5.6499 15.3404 5.0681
v  14.2056 23.6451 0.7413
v  6.1699 34.1351 6.2685
v  1.1729 34.3223 5.0681
v  11.5197 33.9125 0.7413
v  14.2212 50.1511 4.6358
v  9.6075 52.7085 4.1116
v  17.5137 46.9498 0.8357
v  28.3148 68.0120 3.8353
v  24.2846 70.7835 3.5768
v  30.4765 65.5321 0.6914
v  36.1128 84.3613 3.7026
v  29.9734 84.4894 4.7530
v  38.5298 83.9960 0.6501
v  32.3710 95.5322 5.8258
v  26.6831 89.4566 7.6014
v  35.3919 99.3744 0.9264
v  21.3783 105.8739 7.4723
v  19.8382 91.7357 7.5497
v  23.9962 109.6532 0.7413
v  14.9353 100.9347 6.5885
v  14.7893 103.6527 6.5054
v  12.3342 103.3429 6.1336
v  12.0703 100.8107 6.1493
v  15.4259 110.1049 0.7413
v  12.7354 106.3361 6.1288
v  6.4781 104.0017 3.9168
v  10.4074 92.2990 6.0824
v  5.7886 91.8409 5.5999
v  6.4781 104.0017 0.7413
v  -0.9813 99.6885 5.0538
v  1.9629 90.4391 4.5493
v  -1.3921 101.6944 0.7413
v  -6.8707 94.2913 2.8718
v  -3.6993 88.7643 3.9984
v  -8.8947 96.3594 0.7413
v  -9.5051 85.5702 2.2093
v  -7.6144 83.4584 3.8923
v  -11.3551 86.2184 0.7413
v  -11.2138 75.2707 0.7413
v  -11.2068 76.6859 0.7413
v  58.5985 4.1879 -0.0523
v  73.6411 -0.1227 3.7171
v  73.6411 -0.1227 8.0197
v  79.0262 -0.1227 8.0197
v  36.0203 0.0175 0.2811
v  56.7881 68.7725 0.7413
v  43.5555 59.4446 0.7413
v  87.3618 65.0474 0.7413
v  36.3334 51.3078 0.7413
v  21.5269 0.8010 0.7413
v  4.5666 14.6593 0.7413
v  -0.3084 34.3098 0.7413
v  8.4546 53.2952 0.7413
v  23.2672 71.0771 0.7413
v  28.7005 84.1358 0.7413
v  26.6831 89.4567 0.7413
v  19.8302 88.7657 0.7413
v  10.3736 90.4125 0.7413
v  5.7886 91.8410 0.7413
v  2.4001 88.7249 0.7413
v  -1.1831 88.1392 0.7413
v  -6.3312 82.5858 0.7413
v  79.0740 -0.1227 3.7171
v  36.0299 2.5176 -6.1189
v  36.2952 25.8688 -13.3586
v  60.3694 29.2959 -25.4529
v  56.0299 10.3609 -14.2010
v  97.1638 29.2959 -27.0850
v  97.9406 12.4099 -13.9915
v  117.4316 29.2959 -25.1059
v  115.7531 19.3651 -8.3135
v  143.5104 25.0521 -11.4953
v  159.1916 12.1247 -1.0708
v  45.4617 49.9369 -17.3529
v  64.9387 50.3725 -27.7350
v  94.4255 50.3483 -25.5327
v  112.0112 43.4649 -22.5009
v  127.5277 33.3453 -15.5815
v  107.3638 54.1972 -12.5903
v  49.8369 58.0865 -10.6804
v  62.9951 61.0595 -12.7967
v  93.6745 58.3158 -12.5903
v  21.5269 2.2932 -6.1189
v  23.7686 11.7149 -7.7842
v  5.5053 15.3247 -3.8943
v  10.4274 18.5983 -6.3677
v  1.3894 34.4083 -3.2735
v  6.1708 34.0103 -4.4839
v  9.7278 52.6262 -2.2298
v  14.2334 50.1274 -3.0828
v  24.3349 70.7299 -1.6713
v  28.2195 68.0882 -2.4684
v  29.9734 84.4894 -3.2704
v  35.8727 84.3148 -2.0376
v  26.6831 89.4566 -6.1189
v  32.4920 95.5551 -4.4358
v  19.8382 91.7357 -6.0671
v  21.3783 105.8739 -5.9897
v  14.9353 100.9347 -5.1059
v  12.0703 100.8107 -4.6668
v  12.3342 103.3429 -4.6511
v  14.7893 103.6527 -5.0229
v  12.7354 106.3361 -4.6463
v  10.4074 92.2990 -4.5999
v  5.7886 91.8409 -4.1173
v  6.4781 104.0017 -2.4342
v  1.9629 90.4391 -3.0667
v  -0.9813 99.6885 -3.5712
v  -3.6993 88.7643 -2.5158
v  -6.8707 94.2913 -1.3893
v  -7.6144 83.4584 -2.4098
v  -9.5051 85.5702 -0.7267
v  91.4652 0.5832 -7.5715
v  91.4652 0.5832 -3.2690
v  94.5135 5.0225 -7.5715
v  146.3803 -33.1058 -7.5715
v  146.3803 -33.1058 -3.2690
v  151.3450 -30.8994 -3.2690
v  94.5406 5.0619 -3.2690
v  151.3013 -30.9188 -7.5715
v  127.3806 -101.1652 -7.5716
v  127.3806 -101.1651 -3.2690
v  132.8136 -101.1651 -3.2690
v  132.7657 -101.1652 -7.5716
v  125.2170 -107.9516 -7.5716
v  125.2170 -107.9516 -3.2690
v  132.5087 -102.1212 -3.2690
v  132.4713 -102.1510 -7.5715
v  110.6777 -123.5068 -9.4510
v  110.6777 -123.5067 -1.6087
v  134.0755 -103.3541 -1.6087
v  133.7452 -103.6170 -9.4510
v  111.0312 -123.9512 -9.4510
v  111.0311 -123.9511 -1.6087
v  135.1798 -104.7423 -1.6087
v  134.8495 -105.0052 -9.4510
v  82.2582 -61.1451 3.7171
v  82.2582 -61.1451 8.0197
v  87.6911 -61.1451 3.7171
v  87.6433 -61.1451 8.0197
v  58.1384 -126.1599 3.7171
v  58.1384 -126.1599 8.0197
v  63.5713 -126.1599 3.7171
v  63.5235 -126.1599 8.0197
v  57.1417 -128.1095 3.7171
v  57.1417 -128.1095 8.0197
v  62.5746 -128.1095 3.7171
v  62.5268 -128.1095 8.0197
v  33.4213 -130.4155 2.0477
v  33.4130 -130.4156 9.6891
v  63.8847 -129.3181 2.0477
v  63.8476 -129.3182 9.6891
v  33.4213 -131.0919 2.0477
v  33.4130 -131.0921 9.6891
v  63.8847 -131.0919 2.0477
v  63.8476 -131.0921 9.6891
# 188 vertices

vn -0.3057 -0.3589 0.8819
vn -0.1449 -0.4892 0.8600
vn -0.2976 -0.3661 0.8817
vn -0.4020 -0.2670 0.8759
vn -0.0007 -0.5686 0.8226
vn 0.2570 -0.7256 0.6384
vn 0.3662 -0.8336 0.4135
vn 0.0763 -0.7438 0.6640
vn -0.0563 -0.8940 0.4445
vn -0.4597 0.0164 0.8879
vn 0.0086 -0.0177 0.9998
vn 0.1567 0.1515 0.9760
vn 0.5151 0.4424 0.7341
vn 0.4862 0.7612 0.4292
vn 0.6381 0.7018 0.3167
vn -0.3084 0.7340 0.6051
vn 0.0603 0.8323 0.5510
vn 0.3238 0.7683 0.5522
vn -0.0620 -0.2573 0.9643
vn -0.8110 0.3788 0.4458
vn -0.2637 -0.2344 0.9357
vn 0.3596 0.7159 0.5985
vn -0.4239 -0.0460 0.9045
vn 0.7458 0.2448 0.6196
vn -0.1363 0.1391 0.9809
vn 0.6517 -0.2777 0.7058
vn -0.0451 0.0731 0.9963
vn 0.5455 -0.3857 0.7441
vn 0.0600 -0.0615 0.9963
vn 0.6905 -0.3111 0.6531
vn 0.3036 -0.1572 0.9397
vn 0.7847 0.1490 0.6017
vn 0.1221 0.0472 0.9914
vn 0.5491 0.5517 0.6278
vn -0.1524 0.0220 0.9881
vn 0.0037 0.8481 0.5298
vn -0.3492 0.0455 0.9359
vn -0.2301 0.1018 0.9678
vn -0.4976 0.8407 0.2137
vn -0.0192 0.0529 0.9984
vn -0.3666 0.8935 0.2595
vn -0.2047 -0.0435 0.9779
vn -0.5638 0.5850 0.5830
vn -0.3482 0.1116 0.9308
vn -0.6193 0.1401 0.7725
vn -0.6629 0.0033 0.7487
vn -0.6236 -0.0097 0.7817
vn -0.3790 -0.8971 0.2272
vn 0.0258 -0.5392 0.8418
vn 0.1935 -0.9077 0.3724
vn 0.1982 -0.9002 0.3879
vn 0.1847 -0.9208 0.3436
vn 0.1768 -0.9315 0.3179
vn 0.8243 0.5662 -0.0000
vn 0.7262 0.5022 0.4696
vn 0.8328 0.5339 0.1464
vn 0.8490 0.5284 0.0000
vn -0.4033 0.7777 0.4822
vn -0.2672 0.7794 0.5666
vn -0.4604 0.8877 0.0000
vn -0.5762 0.8173 0.0000
vn 0.0960 0.8947 0.4363
vn 0.2962 0.9084 0.2949
vn 0.6029 0.6987 0.3851
vn -0.8379 0.2656 0.4768
vn -0.6594 0.6347 0.4030
vn -0.0143 -0.9625 0.2710
vn -0.6296 -0.7490 0.2065
vn -0.9292 -0.2249 0.2934
vn -0.8565 0.4024 0.3231
vn -0.7243 0.6007 0.3385
vn -0.8872 0.3558 0.2937
vn -0.8689 -0.4808 0.1174
vn -0.1134 -0.9709 0.2110
vn -0.1362 -0.9197 0.3681
vn -0.1125 -0.9770 0.1811
vn 0.5006 -0.8441 0.1922
vn 0.1980 -0.9028 0.3817
vn 0.6547 -0.5514 0.5170
vn 0.7462 -0.4980 0.4418
vn 0.0361 -0.5550 -0.8310
vn 0.4297 -0.8685 0.2472
vn -0.3131 -0.3522 -0.8820
vn -0.4020 -0.2670 -0.8759
vn -0.3046 -0.3598 -0.8819
vn -0.1624 -0.4763 -0.8642
vn -0.0003 -0.5621 -0.8271
vn 0.2607 -0.7224 -0.6404
vn 0.3711 -0.8329 -0.4106
vn 0.0763 -0.7438 -0.6640
vn -0.0563 -0.8940 -0.4445
vn -0.4597 0.0164 -0.8879
vn 0.0086 -0.0177 -0.9998
vn 0.1567 0.1515 -0.9760
vn 0.5151 0.4424 -0.7341
vn 0.4862 0.7612 -0.4292
vn 0.6381 0.7018 -0.3167
vn -0.3084 0.7340 -0.6051
vn 0.0603 0.8323 -0.5510
vn 0.3238 0.7683 -0.5522
vn -0.0620 -0.2573 -0.9643
vn -0.8110 0.3788 -0.4458
vn -0.2383 -0.1768 -0.9549
vn 0.3474 0.7134 -0.6086
vn -0.3504 -0.0171 -0.9364
vn 0.7301 0.2442 -0.6382
vn -0.1695 0.1503 -0.9740
vn 0.6478 -0.2759 -0.7101
vn -0.1172 0.1250 -0.9852
vn 0.5437 -0.3914 -0.7424
vn 0.0295 -0.0520 -0.9982
vn 0.6577 -0.2900 -0.6953
vn 0.3186 -0.1707 -0.9324
vn 0.7840 0.1439 -0.6038
vn 0.1144 0.0448 -0.9924
vn 0.5607 0.5614 -0.6086
vn -0.1524 0.0220 -0.9881
vn 0.0037 0.8481 -0.5298
vn -0.2301 0.1018 -0.9678
vn -0.3492 0.0455 -0.9359
vn -0.4976 0.8407 -0.2137
vn -0.0192 0.0529 -0.9984
vn -0.3666 0.8935 -0.2595
vn -0.2047 -0.0435 -0.9779
vn -0.5638 0.5850 -0.5830
vn -0.3482 0.1116 -0.9308
vn -0.6193 0.1401 -0.7725
vn -0.6629 0.0033 -0.7487
vn -0.6236 -0.0097 -0.7817
vn 0.1761 -0.8956 -0.4084
vn 0.1644 -0.9189 -0.3587
vn 0.1694 -0.9095 -0.3797
vn 0.1789 -0.8895 -0.4205
vn 0.8328 0.5339 -0.1464
vn 0.7262 0.5022 -0.4696
vn -0.4033 0.7777 -0.4822
vn -0.2672 0.7794 -0.5666
vn 0.0960 0.8947 -0.4363
vn 0.2962 0.9084 -0.2949
vn 0.6029 0.6987 -0.3851
vn -0.8379 0.2656 -0.4768
vn -0.6594 0.6347 -0.4030
vn -0.0230 -0.9573 -0.2882
vn -0.6278 -0.7541 -0.1928
vn -0.9297 -0.2110 -0.3020
vn -0.8337 0.3941 -0.3868
vn -0.7007 0.5809 -0.4143
vn -0.8820 0.3450 -0.3210
vn -0.8689 -0.4808 -0.1174
vn -0.1134 -0.9709 -0.2110
vn -0.1362 -0.9197 -0.3681
vn -0.1125 -0.9770 -0.1811
vn 0.5006 -0.8441 -0.1922
vn 0.1980 -0.9028 -0.3817
vn 0.6547 -0.5514 -0.5170
vn 0.7462 -0.4980 -0.4418
vn -0.1699 -0.9414 -0.2913
vn 0.0773 -0.5080 -0.8579
vn -0.5229 -0.8524 -0.0000
vn -0.0000 -0.0000 1.0000
vn 0.5348 0.8449 -0.0102
vn -0.0000 0.0000 -1.0000
vn -0.9632 0.2689 -0.0000
vn 0.9669 -0.2551 -0.0097
vn 0.0000 0.0000 -1.0000
vn -0.9528 0.3037 -0.0000
vn 0.0000 -0.0000 1.0000
vn 0.9555 -0.2949 -0.0084
vn 0.0000 -0.0000 -1.0000
vn -0.7306 0.6828 -0.0000
vn -0.3875 0.4577 0.8002
vn 0.6867 0.7259 -0.0383
vn -0.4193 0.4948 -0.7612
vn -0.7826 -0.6225 -0.0000
vn 0.7815 0.6216 -0.0537
vn 0.6225 -0.7826 0.0000
vn 0.0844 -0.6300 0.7720
vn 0.8771 -0.4778 -0.0493
vn -0.9902 -0.1398 -0.0000
vn 0.9901 0.1398 0.0110
vn -0.9376 0.3478 0.0000
vn 0.9375 -0.3478 0.0104
vn -0.8904 0.4552 0.0000
vn 0.8903 -0.4552 0.0099
vn -0.0967 0.9953 -0.0001
vn -0.0233 0.7627 -0.6463
vn 0.6766 0.7364 0.0048
vn -0.0234 0.7628 0.6462
vn -1.0000 -0.0000 -0.0011
vn 1.0000 0.0000 0.0049
vn 0.0000 -1.0000 -0.0000
# 191 vertex normals

vt 0.0000 0.0000 0.0000
vt 1.0000 0.0000 0.0000
vt 1.0000 1.0000 0.0000
vt 0.0000 1.0000 0.0000
vt 0.3720 0.6280 0.0000
vt 0.3710 0.0448 0.0000
vt 0.0000 0.0674 0.0000
vt 0.0000 0.2903 0.0000
vt 1.0000 0.0571 0.0000
vt 1.0000 0.0434 0.0000
vt 1.0000 0.0306 0.0000
vt 1.0000 0.0527 0.0000
vt 0.0000 0.0444 0.0000
vt 0.0000 0.0921 0.0000
vt 0.0000 0.1033 0.0000
vt 0.0000 0.1314 0.0000
vt 0.0000 0.1933 0.0000
vt 0.0000 0.1699 0.0000
vt 0.0000 0.1252 0.0000
vt 0.0000 0.6925 0.0000
vt 0.0000 0.8501 0.0000
vt 0.0000 0.8124 0.0000
vt 0.0000 0.5953 0.0000
vt 0.0000 0.2472 0.0000
vt 0.0000 0.2238 0.0000
vt 0.0000 0.2872 0.0000
vt 0.0000 0.3355 0.0000
vt 0.0000 0.4624 0.0000
vt 0.0000 0.6267 0.0000
vt 0.0000 0.7781 0.0000
vt 1.0000 0.0275 0.0000
vt 0.7440 1.0000 0.0000
vt 0.0000 0.0975 0.0000
vt 0.0000 0.0519 0.0000
vt 1.0000 0.0609 0.0000
vt 1.0000 0.0407 0.0000
vt 0.0000 0.1279 0.0000
vt 0.0000 0.1706 0.0000
vt 0.0000 0.2007 0.0000
vt 0.0000 0.1644 0.0000
vt 0.0000 0.1322 0.0000
vt 0.0000 0.1563 0.0000
vt 0.0000 0.1740 0.0000
vt 0.0000 0.1874 0.0000
vt 0.0000 0.1904 0.0000
vt 0.0000 0.5775 0.0000
vt 0.7419 0.0000 0.0000
vt 0.5599 0.0231 0.0000
vt 1.0000 0.0550 0.0000
vt 1.0000 0.0143 0.0000
vt 0.4960 0.7520 0.0000
# 51 texture coords

g Box001
usemtl 01___Default
s 4
f 1/1/1 2/2/2 3/3/3 4/4/4 
s off
f 3/3/5 2/2/5 5/5/5 6/3/5 
f 6/3/6 5/5/6 7/4/6 8/3/6 
usemtl 03___Default
f 9/6/7 10/7/7 7/4/7 5/5/7 
usemtl 01___Default
f 8/3/8 7/4/8 11/4/8 12/3/8 
usemtl 03___Default
f 10/7/9 13/8/9 11/4/9 7/4/9 
usemtl 01___Default
f 4/4/10 3/3/10 14/4/10 15/3/10 
f 3/3/11 6/3/11 16/3/11 14/4/11 
f 6/3/12 8/3/12 17/3/12 16/3/12 
usemtl 01___Pink
f 8/3/13 12/3/13 18/3/13 17/3/13 
usemtl 01___Default
f 12/3/14 19/9/14 20/10/14 18/3/14 
f 21/11/15 22/12/15 23/3/15 17/3/15 
f 15/3/16 14/4/16 24/4/16 25/3/16 
f 14/4/17 16/3/17 26/3/17 24/4/17 
f 16/3/18 17/3/18 23/3/18 26/3/18 
f 1/1/19 4/4/19 27/4/19 28/1/19 
f 4/4/20 29/13/20 30/14/20 27/4/20 
f 28/1/21 27/4/21 31/4/21 32/1/21 
f 30/14/22 33/15/22 31/4/22 27/4/22 
f 32/1/23 31/4/23 34/4/23 35/1/23 
f 33/15/24 36/16/24 34/4/24 31/4/24 
f 35/1/25 34/4/25 37/4/25 38/1/25 
f 36/16/26 39/17/26 37/4/26 34/4/26 
f 38/1/27 37/4/27 40/4/27 41/1/27 
f 37/4/28 39/17/28 42/18/28 40/4/28 
f 41/1/29 40/4/29 43/4/29 44/1/29 
f 40/4/30 42/18/30 45/18/30 43/4/30 
f 44/1/31 43/4/31 46/4/31 47/1/31 
f 45/18/32 48/19/32 46/4/32 43/4/32 
f 47/1/33 46/4/33 49/4/33 50/1/33 
f 48/19/34 51/19/34 49/4/34 46/4/34 
usemtl 03___Default
f 52/20/35 53/21/35 54/22/35 55/23/35 
usemtl 01___Default
f 49/4/36 51/19/36 56/19/36 57/4/36 
f 54/22/37 57/4/37 58/4/37 55/23/37 
f 59/1/38 55/23/38 58/4/38 60/1/38 
f 57/4/39 56/19/39 61/24/39 58/4/39 
usemtl 01___Pink
f 60/1/40 58/4/40 62/4/40 63/1/40 
f 58/4/41 61/24/41 64/25/41 62/4/41 
f 63/1/42 62/4/42 65/4/42 66/1/42 
usemtl 03___Default
f 64/25/43 67/26/43 65/4/43 62/4/43 
usemtl 01___Pink
f 66/1/44 65/4/44 68/4/44 69/1/44 
usemtl 03___Default
f 65/4/45 67/26/45 70/27/45 68/4/45 
f 71/28/46 69/1/46 68/4/46 72/29/46 
f 68/4/47 70/27/47 72/30/47 
usemtl 01___Default
f 73/31/48 74/2/48 75/3/48 2/3/48 
f 5/5/49 2/2/49 75/3/49 76/32/49 
f 52/20/35 55/23/35 59/1/35 50/1/35 
f 52/20/35 50/1/35 49/4/35 53/21/35 
f 53/21/35 49/4/35 57/4/35 54/22/35 
usemtl 03___Default
s 1
f 73/31/50 2/3/51 1/4/52 77/33/53 
usemtl 01___Default
s 16
f 19/9/54 12/3/55 11/4/56 13/8/57 
s 32
f 25/3/58 24/4/59 78/34/60 79/35/61 
s off
f 24/4/62 26/3/62 80/12/62 78/34/62 
f 26/3/63 23/3/63 22/12/63 80/12/63 
f 21/11/64 17/3/64 18/3/64 20/10/64 
f 29/13/65 4/4/65 15/3/65 81/36/65 
f 81/36/66 15/3/66 25/3/66 79/35/66 
f 1/4/67 28/4/67 82/37/67 77/33/67 
f 82/37/68 28/4/68 32/4/68 83/38/68 
f 32/4/69 35/4/69 84/38/69 83/38/69 
f 35/4/70 38/4/70 85/39/70 84/38/70 
f 38/4/71 41/4/71 86/40/71 85/39/71 
f 41/4/72 44/4/72 87/41/72 86/40/72 
f 44/4/73 47/4/73 88/33/73 87/41/73 
f 47/4/74 50/4/74 89/33/74 88/33/74 
f 50/4/75 59/4/75 90/33/75 89/33/75 
f 90/33/76 59/4/76 60/4/76 91/42/76 
usemtl 01___Pink
f 91/42/77 60/4/77 63/4/77 92/43/77 
f 63/4/78 66/4/78 93/44/78 92/43/78 
f 66/4/79 69/4/79 94/45/79 93/44/79 
usemtl 03___Default
f 94/45/80 69/4/80 71/46/80 
usemtl 01___Default
f 95/47/81 74/2/81 73/31/81 9/48/81 
f 76/32/82 95/47/82 9/48/82 5/32/82 
s 4
f 96/1/83 97/4/84 98/3/85 99/2/86 
s off
f 98/3/87 100/3/87 101/5/87 99/2/87 
f 100/3/88 102/3/88 103/4/88 101/5/88 
usemtl 03___Default
f 9/6/89 101/5/89 103/4/89 10/7/89 
usemtl 01___Default
f 102/3/90 104/3/90 105/4/90 103/4/90 
usemtl 03___Default
f 10/7/91 103/4/91 105/4/91 13/8/91 
usemtl 01___Default
f 97/4/92 106/3/92 107/4/92 98/3/92 
f 98/3/93 107/4/93 108/3/93 100/3/93 
f 100/3/94 108/3/94 109/3/94 102/3/94 
usemtl 01___Pink
f 102/3/95 109/3/95 110/3/95 104/3/95 
usemtl 01___Default
f 104/3/96 110/3/96 20/10/96 19/9/96 
f 21/11/97 109/3/97 111/3/97 22/12/97 
f 106/3/98 112/3/98 113/4/98 107/4/98 
f 107/4/99 113/4/99 114/3/99 108/3/99 
f 108/3/100 114/3/100 111/3/100 109/3/100 
f 96/1/101 115/1/101 116/4/101 97/4/101 
f 97/4/102 116/4/102 30/14/102 29/13/102 
f 115/1/103 117/1/103 118/4/103 116/4/103 
f 30/14/104 116/4/104 118/4/104 33/15/104 
f 117/1/105 119/1/105 120/4/105 118/4/105 
f 33/15/106 118/4/106 120/4/106 36/16/106 
f 119/1/107 121/1/107 122/4/107 120/4/107 
f 36/16/108 120/4/108 122/4/108 39/17/108 
f 121/1/109 123/1/109 124/4/109 122/4/109 
f 122/4/110 124/4/110 42/18/110 39/17/110 
f 123/1/111 125/1/111 126/4/111 124/4/111 
f 124/4/112 126/4/112 45/18/112 42/18/112 
f 125/1/113 127/1/113 128/4/113 126/4/113 
f 45/18/114 126/4/114 128/4/114 48/19/114 
f 127/1/115 129/1/115 130/4/115 128/4/115 
f 48/19/116 128/4/116 130/4/116 51/19/116 
usemtl 03___Default
f 131/20/117 132/23/117 133/22/117 134/21/117 
usemtl 01___Default
f 130/4/118 135/4/118 56/19/118 51/19/118 
f 136/1/119 137/1/119 138/4/119 132/23/119 
f 138/4/120 135/4/120 133/22/120 132/23/120 
f 135/4/121 138/4/121 61/24/121 56/19/121 
usemtl 01___Pink
f 137/1/122 139/1/122 140/4/122 138/4/122 
f 138/4/123 140/4/123 64/25/123 61/24/123 
f 139/1/124 141/1/124 142/4/124 140/4/124 
usemtl 03___Default
f 64/25/125 140/4/125 142/4/125 67/26/125 
usemtl 01___Pink
f 141/1/126 143/1/126 144/4/126 142/4/126 
usemtl 03___Default
f 142/4/127 144/4/127 70/27/127 67/26/127 
f 71/28/128 72/29/128 144/4/128 143/1/128 
f 144/4/129 72/30/129 70/27/129 
usemtl 01___Default
f 134/21/117 133/22/117 135/4/117 130/4/117 
f 136/1/117 132/23/117 131/20/117 129/1/117 
f 130/4/117 129/1/117 131/20/117 134/21/117 
usemtl 03___Default
s 2
f 73/49/130 77/33/131 96/4/132 99/3/133 
usemtl 01___Default
s 16
f 19/9/54 13/8/57 105/4/134 104/3/135 
s 32
f 112/3/136 79/35/61 78/34/60 113/4/137 
s off
f 113/4/138 78/34/138 80/12/138 114/3/138 
f 114/3/139 80/12/139 22/12/139 111/3/139 
f 21/11/140 20/10/140 110/3/140 109/3/140 
f 29/13/141 81/36/141 106/3/141 97/4/141 
f 81/36/142 79/35/142 112/3/142 106/3/142 
f 96/4/143 77/33/143 82/37/143 115/4/143 
f 82/37/144 83/38/144 117/4/144 115/4/144 
f 117/4/145 83/38/145 84/38/145 119/4/145 
f 119/4/146 84/38/146 85/39/146 121/4/146 
f 121/4/147 85/39/147 86/40/147 123/4/147 
f 123/4/148 86/40/148 87/41/148 125/4/148 
f 125/4/149 87/41/149 88/33/149 127/4/149 
f 127/4/150 88/33/150 89/33/150 129/4/150 
f 129/4/151 89/33/151 90/33/151 136/4/151 
f 90/33/152 91/42/152 137/4/152 136/4/152 
usemtl 01___Pink
f 91/42/153 92/43/153 139/4/153 137/4/153 
f 139/4/154 92/43/154 93/44/154 141/4/154 
f 141/4/155 93/44/155 94/45/155 143/4/155 
usemtl 03___Default
f 94/45/156 71/46/156 143/4/156 
usemtl 01___Default
f 99/3/157 145/3/157 146/2/157 73/50/157 
f 99/2/158 101/51/158 147/32/158 145/3/158 
usemtl 01___Pink
f 145/3/159 148/3/159 149/2/159 146/2/159 
f 146/2/160 149/2/160 150/47/160 151/47/160 
f 151/47/161 150/47/161 152/32/161 147/32/161 
f 147/32/162 152/32/162 148/3/162 145/3/162 
f 148/3/163 153/3/163 154/2/163 149/2/163 
f 149/2/160 154/2/160 155/47/160 150/47/160 
f 150/47/164 155/47/164 156/32/164 152/32/164 
f 152/32/165 156/32/165 153/3/165 148/3/165 
f 153/3/166 157/3/166 158/2/166 154/2/166 
f 154/2/167 158/2/167 159/47/167 155/47/167 
f 155/47/168 159/47/168 160/32/168 156/32/168 
f 156/32/169 160/32/169 157/3/169 153/3/169 
f 157/3/170 161/3/170 162/2/170 158/2/170 
f 158/2/171 162/2/171 163/47/171 159/47/171 
f 159/47/172 163/47/172 164/32/172 160/32/172 
f 160/32/173 164/32/173 161/3/173 157/3/173 
f 161/3/174 165/3/174 166/2/174 162/2/174 
f 162/2/167 166/2/167 167/47/167 163/47/167 
f 163/47/175 167/47/175 168/32/175 164/32/175 
f 164/32/165 168/32/165 165/3/165 161/3/165 
f 167/47/176 166/2/176 165/3/176 168/32/176 
usemtl 01___Default
f 151/47/177 9/48/177 73/50/177 146/2/177 
f 9/48/178 151/47/178 147/32/178 101/51/178 
usemtl 01___Pink
f 75/3/179 74/2/179 169/2/179 170/3/179 
f 74/2/165 95/47/165 171/47/165 169/2/165 
f 95/47/180 76/32/180 172/32/180 171/47/180 
f 76/32/167 75/3/167 170/3/167 172/32/167 
f 170/3/181 169/2/181 173/2/181 174/3/181 
f 169/2/162 171/47/162 175/47/162 173/2/162 
f 171/47/182 172/32/182 176/32/182 175/47/182 
f 172/32/167 170/3/167 174/3/167 176/32/167 
f 174/3/183 173/2/183 177/2/183 178/3/183 
f 173/2/162 175/47/162 179/47/162 177/2/162 
f 175/47/184 176/32/184 180/32/184 179/47/184 
f 176/32/167 174/3/167 178/3/167 180/32/167 
f 178/3/185 177/2/185 181/2/185 182/3/185 
f 177/2/186 179/47/186 183/47/186 181/2/186 
f 179/47/187 180/32/187 184/32/187 183/47/187 
f 180/32/188 178/3/188 182/3/188 184/32/188 
f 182/3/189 181/2/189 185/2/189 186/3/189 
f 181/2/169 183/47/169 187/47/169 185/2/169 
f 183/47/190 184/32/190 188/32/190 187/47/190 
f 184/32/160 182/3/160 186/3/160 188/32/160 
f 187/47/191 188/32/191 186/3/191 185/2/191 
# 184 polygons - 4 triangles

