####
#
# OBJ File Generated by Meshlab
#
####
# Object hex0.obj
#
# Vertices: 96
# Faces: 192
#
####
vn 2.720700 -0.000000 -2.094397
v 140.000000 0.000000 -30.000000
vn 5.441400 0.000000 0.000000
v 140.000000 0.000000 -18.000000
vn 5.441400 0.000000 0.000000
v 140.000000 0.000000 -6.000000
vn 5.441400 0.000000 0.000000
v 140.000000 0.000000 6.000000
vn 5.441400 0.000000 0.000000
v 140.000000 0.000000 18.000000
vn 2.720700 0.000000 2.094397
v 140.000000 0.000000 30.000000
vn 1.360350 2.356195 -2.094394
v 70.000000 121.243553 -30.000000
vn 2.720700 4.712390 0.000000
v 70.000000 121.243553 -18.000000
vn 2.720700 4.712390 0.000000
v 70.000000 121.243553 -6.000000
vn 2.720700 4.712390 0.000000
v 70.000000 121.243553 6.000000
vn 2.720700 4.712390 0.000000
v 70.000000 121.243553 18.000000
vn 1.360350 2.356195 2.094394
v 70.000000 121.243553 30.000000
vn -1.360350 2.356195 -2.094394
v -70.000000 121.243553 -30.000000
vn -2.720700 4.712390 0.000000
v -70.000000 121.243553 -18.000000
vn -2.720700 4.712390 0.000000
v -70.000000 121.243553 -6.000000
vn -2.720700 4.712390 0.000000
v -70.000000 121.243553 6.000000
vn -2.720700 4.712390 0.000000
v -70.000000 121.243553 18.000000
vn -1.360350 2.356195 2.094394
v -70.000000 121.243553 30.000000
vn -2.720700 0.000000 -2.094397
v -140.000000 0.000000 -30.000000
vn -5.441400 0.000000 0.000000
v -140.000000 0.000000 -18.000000
vn -5.441400 0.000000 0.000000
v -140.000000 0.000000 -6.000000
vn -5.441400 0.000000 0.000000
v -140.000000 0.000000 6.000000
vn -5.441400 0.000000 0.000000
v -140.000000 0.000000 18.000000
vn -2.720700 -0.000000 2.094397
v -140.000000 0.000000 30.000000
vn -1.360350 -2.356195 -2.094394
v -70.000000 -121.243553 -30.000000
vn -2.720700 -4.712390 0.000000
v -70.000000 -121.243553 -18.000000
vn -2.720700 -4.712390 0.000000
v -70.000000 -121.243553 -6.000000
vn -2.720700 -4.712390 0.000000
v -70.000000 -121.243553 6.000000
vn -2.720700 -4.712390 0.000000
v -70.000000 -121.243553 18.000000
vn -1.360350 -2.356195 2.094394
v -70.000000 -121.243553 30.000000
vn 1.360350 -2.356195 -2.094394
v 70.000000 -121.243553 -30.000000
vn 2.720700 -4.712390 0.000000
v 70.000000 -121.243553 -18.000000
vn 2.720700 -4.712390 0.000000
v 70.000000 -121.243553 -6.000000
vn 2.720700 -4.712390 0.000000
v 70.000000 -121.243553 6.000000
vn 2.720700 -4.712390 0.000000
v 70.000000 -121.243553 18.000000
vn 1.360350 -2.356195 2.094394
v 70.000000 -121.243553 30.000000
vn -2.720698 0.000000 -4.188789
v 136.399994 0.000000 -30.000000
vn -1.360350 -2.356194 -4.188789
v 68.199997 118.125862 -30.000000
vn 2.720699 0.000000 -2.094391
v 110.800003 0.000000 -30.000000
vn 1.360349 2.356194 -2.094395
v 55.400002 95.955612 -30.000000
vn -2.720699 0.000000 -4.188790
v 107.191383 0.000000 -30.000000
vn -1.360350 -2.356194 -4.188790
v 53.595692 92.830460 -30.000000
vn -2.720698 -0.000000 4.188789
v 136.399994 0.000000 30.000000
vn -1.360349 -2.356194 4.188789
v 68.199997 118.125862 30.000000
vn 2.720699 -0.000000 2.094391
v 110.800003 0.000000 30.000000
vn 1.360350 2.356194 2.094395
v 55.400002 95.955612 30.000000
vn -2.720699 -0.000000 4.188790
v 107.191383 0.000000 30.000000
vn -1.360349 -2.356194 4.188790
v 53.595692 92.830460 30.000000
vn 1.360349 -2.356194 -4.188789
v -68.199997 118.125862 -30.000000
vn -1.360350 2.356194 -2.094395
v -55.400002 95.955612 -30.000000
vn 1.360349 -2.356194 -4.188790
v -53.595692 92.830460 -30.000000
vn 1.360350 -2.356194 4.188789
v -68.199997 118.125862 30.000000
vn -1.360349 2.356194 2.094395
v -55.400002 95.955612 30.000000
vn 1.360350 -2.356194 4.188790
v -53.595692 92.830460 30.000000
vn 2.720698 -0.000000 -4.188789
v -136.399994 0.000000 -30.000000
vn -2.720699 -0.000000 -2.094393
v -110.800003 0.000000 -30.000000
vn 2.720699 -0.000000 -4.188790
v -107.191383 0.000000 -30.000000
vn 2.720698 0.000000 4.188789
v -136.399994 0.000000 30.000000
vn -2.720699 0.000000 2.094395
v -110.800003 0.000000 30.000000
vn 2.720699 0.000000 4.188790
v -107.191383 0.000000 30.000000
vn 1.360350 2.356194 -4.188789
v -68.199997 -118.125862 -30.000000
vn -1.360349 -2.356194 -2.094395
v -55.400002 -95.955612 -30.000000
vn 1.360350 2.356194 -4.188790
v -53.595692 -92.830460 -30.000000
vn 1.360349 2.356194 4.188789
v -68.199997 -118.125862 30.000000
vn -1.360350 -2.356194 2.094395
v -55.400002 -95.955612 30.000000
vn 1.360349 2.356194 4.188790
v -53.595692 -92.830460 30.000000
vn -1.360349 2.356194 -4.188789
v 68.199997 -118.125862 -30.000000
vn 1.360350 -2.356194 -2.094395
v 55.400002 -95.955612 -30.000000
vn -1.360349 2.356194 -4.188790
v 53.595692 -92.830460 -30.000000
vn -1.360350 2.356194 4.188789
v 68.199997 -118.125862 30.000000
vn 1.360349 -2.356194 2.094395
v 55.400002 -95.955612 30.000000
vn -1.360350 2.356194 4.188790
v 53.595692 -92.830460 30.000000
vn -2.720698 -0.000000 -2.094395
v 136.399994 0.000000 -20.000000
vn 2.720699 -0.000000 -4.188790
v 110.800003 0.000000 -20.000000
vn -1.360349 -2.356194 -2.094395
v 68.199997 118.125862 -20.000000
vn 1.360350 2.356194 -4.188790
v 55.400002 95.955612 -20.000000
vn 1.360350 -2.356194 -2.094395
v -68.199997 118.125862 -20.000000
vn -1.360349 2.356194 -4.188790
v -55.400002 95.955612 -20.000000
vn 2.720698 0.000000 -2.094395
v -136.399994 0.000000 -20.000000
vn -2.720699 0.000000 -4.188790
v -110.800003 0.000000 -20.000000
vn 1.360349 2.356194 -2.094395
v -68.199997 -118.125862 -20.000000
vn -1.360350 -2.356194 -4.188790
v -55.400002 -95.955612 -20.000000
vn -1.360350 2.356194 -2.094395
v 68.199997 -118.125862 -20.000000
vn 1.360349 -2.356194 -4.188790
v 55.400002 -95.955612 -20.000000
vn -2.720698 0.000000 2.094395
v 136.399994 0.000000 20.000000
vn 2.720699 0.000000 4.188790
v 110.800003 0.000000 20.000000
vn -1.360350 -2.356194 2.094395
v 68.199997 118.125862 20.000000
vn 1.360349 2.356194 4.188790
v 55.400002 95.955612 20.000000
vn 1.360349 -2.356194 2.094395
v -68.199997 118.125862 20.000000
vn -1.360350 2.356194 4.188790
v -55.400002 95.955612 20.000000
vn 2.720698 -0.000000 2.094395
v -136.399994 0.000000 20.000000
vn -2.720699 -0.000000 4.188790
v -110.800003 0.000000 20.000000
vn 1.360350 2.356194 2.094395
v -68.199997 -118.125862 20.000000
vn -1.360349 -2.356194 4.188790
v -55.400002 -95.955612 20.000000
vn -1.360349 2.356194 2.094395
v 68.199997 -118.125862 20.000000
vn 1.360350 -2.356194 4.188790
v 55.400002 -95.955612 20.000000
# 96 vertices, 0 vertices normals

f 42//42 40//40 39//39
f 42//42 39//39 41//41
f 38//38 7//7 1//1
f 38//38 1//1 37//37
f 7//7 8//8 2//2
f 7//7 2//2 1//1
f 8//8 9//9 3//3
f 8//8 3//3 2//2
f 9//9 10//10 4//4
f 9//9 4//4 3//3
f 10//10 11//11 5//5
f 10//10 5//5 4//4
f 11//11 12//12 6//6
f 11//11 6//6 5//5
f 48//48 47//47 45//45
f 48//48 45//45 46//46
f 43//43 6//6 12//12
f 43//43 12//12 44//44
f 49//49 13//13 7//7
f 49//49 7//7 38//38
f 50//50 40//40 42//42
f 50//50 42//42 51//51
f 13//13 14//14 8//8
f 13//13 8//8 7//7
f 14//14 15//15 9//9
f 14//14 9//9 8//8
f 15//15 16//16 10//10
f 15//15 10//10 9//9
f 16//16 17//17 11//11
f 16//16 11//11 10//10
f 17//17 18//18 12//12
f 17//17 12//12 11//11
f 53//53 54//54 48//48
f 53//53 48//48 46//46
f 44//44 12//12 18//18
f 44//44 18//18 52//52
f 55//55 19//19 13//13
f 55//55 13//13 49//49
f 56//56 50//50 51//51
f 56//56 51//51 57//57
f 19//19 20//20 14//14
f 19//19 14//14 13//13
f 20//20 21//21 15//15
f 20//20 15//15 14//14
f 21//21 22//22 16//16
f 21//21 16//16 15//15
f 22//22 23//23 17//17
f 22//22 17//17 16//16
f 23//23 24//24 18//18
f 23//23 18//18 17//17
f 60//60 54//54 53//53
f 60//60 53//53 59//59
f 24//24 58//58 52//52
f 24//24 52//52 18//18
f 61//61 25//25 19//19
f 61//61 19//19 55//55
f 62//62 56//56 57//57
f 62//62 57//57 63//63
f 25//25 26//26 20//20
f 25//25 20//20 19//19
f 26//26 27//27 21//21
f 26//26 21//21 20//20
f 27//27 28//28 22//22
f 27//27 22//22 21//21
f 28//28 29//29 23//23
f 28//28 23//23 22//22
f 29//29 30//30 24//24
f 29//29 24//24 23//23
f 65//65 66//66 60//60
f 65//65 60//60 59//59
f 58//58 24//24 30//30
f 58//58 30//30 64//64
f 67//67 31//31 25//25
f 67//67 25//25 61//61
f 63//63 69//69 68//68
f 63//63 68//68 62//62
f 31//31 32//32 26//26
f 31//31 26//26 25//25
f 32//32 33//33 27//27
f 32//32 27//27 26//26
f 33//33 34//34 28//28
f 33//33 28//28 27//27
f 34//34 35//35 29//29
f 34//34 29//29 28//28
f 35//35 36//36 30//30
f 35//35 30//30 29//29
f 71//71 72//72 66//66
f 71//71 66//66 65//65
f 64//64 30//30 36//36
f 64//64 36//36 70//70
f 69//69 41//41 39//39
f 69//69 39//39 68//68
f 37//37 1//1 31//31
f 37//37 31//31 67//67
f 1//1 2//2 32//32
f 1//1 32//32 31//31
f 2//2 3//3 33//33
f 2//2 33//33 32//32
f 3//3 4//4 34//34
f 3//3 34//34 33//33
f 4//4 5//5 35//35
f 4//4 35//35 34//34
f 5//5 6//6 36//36
f 5//5 36//36 35//35
f 72//72 71//71 45//45
f 72//72 45//45 47//47
f 70//70 36//36 6//6
f 70//70 6//6 43//43
f 75//75 38//38 37//37
f 75//75 37//37 73//73
f 76//76 75//75 73//73
f 76//76 73//73 74//74
f 74//74 39//39 40//40
f 74//74 40//40 76//76
f 77//77 49//49 38//38
f 77//77 38//38 75//75
f 78//78 77//77 75//75
f 78//78 75//75 76//76
f 76//76 40//40 50//50
f 76//76 50//50 78//78
f 79//79 55//55 49//49
f 79//79 49//49 77//77
f 80//80 79//79 77//77
f 80//80 77//77 78//78
f 78//78 50//50 56//56
f 78//78 56//56 80//80
f 81//81 61//61 55//55
f 81//81 55//55 79//79
f 82//82 81//81 79//79
f 82//82 79//79 80//80
f 80//80 56//56 62//62
f 80//80 62//62 82//82
f 83//83 67//67 61//61
f 83//83 61//61 81//81
f 84//84 83//83 81//81
f 84//84 81//81 82//82
f 82//82 62//62 68//68
f 82//82 68//68 84//84
f 73//73 37//37 67//67
f 73//73 67//67 83//83
f 74//74 73//73 83//83
f 74//74 83//83 84//84
f 84//84 68//68 39//39
f 84//84 39//39 74//74
f 85//85 43//43 44//44
f 85//85 44//44 87//87
f 88//88 86//86 85//85
f 88//88 85//85 87//87
f 88//88 46//46 45//45
f 88//88 45//45 86//86
f 87//87 44//44 52//52
f 87//87 52//52 89//89
f 90//90 88//88 87//87
f 90//90 87//87 89//89
f 90//90 53//53 46//46
f 90//90 46//46 88//88
f 89//89 52//52 58//58
f 89//89 58//58 91//91
f 92//92 90//90 89//89
f 92//92 89//89 91//91
f 92//92 59//59 53//53
f 92//92 53//53 90//90
f 91//91 58//58 64//64
f 91//91 64//64 93//93
f 94//94 92//92 91//91
f 94//94 91//91 93//93
f 94//94 65//65 59//59
f 94//94 59//59 92//92
f 93//93 64//64 70//70
f 93//93 70//70 95//95
f 96//96 94//94 93//93
f 96//96 93//93 95//95
f 96//96 71//71 65//65
f 96//96 65//65 94//94
f 95//95 70//70 43//43
f 95//95 43//43 85//85
f 86//86 96//96 95//95
f 86//86 95//95 85//85
f 86//86 45//45 71//71
f 86//86 71//71 96//96
f 48//48 42//42 41//41
f 48//48 41//41 47//47
f 42//42 48//48 54//54
f 42//42 54//54 51//51
f 51//51 54//54 60//60
f 51//51 60//60 57//57
f 57//57 60//60 66//66
f 57//57 66//66 63//63
f 63//63 66//66 72//72
f 63//63 72//72 69//69
f 47//47 41//41 69//69
f 47//47 69//69 72//72
# 192 faces, 0 coords texture

# End of File
